<?xml version="1.0" encoding="utf-8"?>
<!-- Generator: Adobe Illustrator 25.4.8, SVG Export Plug-In . SVG Version: 6.00 Build 0)  -->
<svg version="1.1" id="Livello_1" xmlns="http://www.w3.org/2000/svg" xmlns:xlink="http://www.w3.org/1999/xlink" x="0px" y="0px"
	 viewBox="0 0 38 24" style="enable-background:new 0 0 38 24;" xml:space="preserve">
<style type="text/css">
	.st0{fill:#565656;enable-background:new    ;}
	.st1{fill:#FFFFFF;}
	.st2{fill:#565656;}
	.st3{fill:#C9C9C9;}
	.st4{fill:#A8A8A8;}
	.st5{fill:#898989;}
</style>
<path class="st0" d="M35,0H3C1.3,0,0,1.3,0,3v18c0,1.7,1.4,3,3,3h32c1.7,0,3-1.3,3-3V3C38,1.3,36.6,0,35,0z"/>
<path class="st1" d="M35,1c1.1,0,2,0.9,2,2v18c0,1.1-0.9,2-2,2H3c-1.1,0-2-0.9-2-2V3c0-1.1,0.9-2,2-2H35"/>
<path class="st2" d="M18.1,12v3.2h-1V7.3h2.7c0.7,0,1.3,0.2,1.7,0.7c0.9,0.9,1,2.3,0.1,3.2c0,0,0,0,0,0l-0.1,0.1
	C21,11.8,20.4,12,19.8,12L18.1,12z M18.1,8.2V11h1.7c0.4,0,0.7-0.1,1-0.4c0.5-0.6,0.5-1.4,0-2c-0.3-0.2-0.6-0.4-1-0.4L18.1,8.2z
	 M24.6,9.6c0.6,0,1.3,0.2,1.8,0.6c0.4,0.4,0.7,1,0.6,1.6v3.3h-1v-0.8h0c-0.4,0.6-1,0.9-1.7,0.9c-0.5,0-1.1-0.2-1.5-0.5
	c-0.4-0.3-0.6-0.8-0.6-1.3c0-0.5,0.2-1,0.6-1.3c0.5-0.4,1.1-0.5,1.7-0.5c0.5,0,1,0.1,1.5,0.3v-0.2c0-0.3-0.1-0.7-0.4-0.9
	c-0.3-0.2-0.6-0.4-1-0.4c-0.5,0-1,0.3-1.3,0.7l-0.9-0.6C22.9,9.9,23.7,9.5,24.6,9.6z M23.3,13.5c0,0.3,0.1,0.5,0.3,0.7
	c0.2,0.2,0.5,0.3,0.8,0.3c0.4,0,0.8-0.2,1.1-0.5c0.3-0.3,0.5-0.7,0.5-1.1c-0.4-0.3-0.9-0.4-1.3-0.4c-0.4,0-0.7,0.1-1,0.3
	C23.4,13,23.3,13.2,23.3,13.5z M32.6,9.8l-3.4,7.8h-1l1.3-2.7l-2.2-5.1h1.1l1.6,3.9l1.6-3.9C31.5,9.8,32.6,9.8,32.6,9.8z"/>
<path class="st3" d="M14,11.3c0-0.3,0-0.6-0.1-0.9H9.6v1.7h2.5c-0.1,0.6-0.4,1.1-0.9,1.4v1.1h1.5C13.5,13.7,14,12.5,14,11.3z"/>
<path class="st4" d="M9.6,15.7c1.1,0,2.2-0.4,3-1.1l-1.5-1.1c-1.3,0.8-3,0.4-3.8-0.8c-0.1-0.2-0.2-0.4-0.3-0.6H5.6v1.2
	C6.3,14.7,7.9,15.7,9.6,15.7z"/>
<path class="st5" d="M7.1,12.1c-0.2-0.6-0.2-1.2,0-1.7V9.1H5.6c-0.6,1.3-0.6,2.8,0,4.1L7.1,12.1z"/>
<path class="st2" d="M9.6,8.4c0.6,0,1.3,0.2,1.7,0.7l1.3-1.3C11.8,7,10.7,6.6,9.6,6.6c-1.7,0-3.3,1-4,2.5l1.5,1.2
	C7.4,9.2,8.5,8.5,9.6,8.4z"/>
</svg>
